<?xml version="1.0" encoding="UTF-8"?>
<!DOCTYPE svg PUBLIC "-//W3C//DTD SVG 1.1//EN" "http://www.w3.org/Graphics/SVG/1.1/DTD/svg11.dtd">
<!-- Creator: CorelDRAW X6 -->
<svg xmlns="http://www.w3.org/2000/svg" xml:space="preserve" width="100%" height="100%" version="1.1" style="shape-rendering:geometricPrecision; text-rendering:geometricPrecision; image-rendering:optimizeQuality; fill-rule:evenodd; clip-rule:evenodd"
viewBox="0 0 2540 2540"
 xmlns:xlink="http://www.w3.org/1999/xlink">
 <defs>
  <style type="text/css">
   <![CDATA[
    .str0 {stroke:#E31E24;stroke-width:40}
    .fil0 {fill:none}
   ]]>
  </style>
 </defs>
 <g id="Layer_x0020_1">
  <metadata id="CorelCorpID_0Corel-Layer"/>
  <g id="_279090312">
   <line class="fil0 str0" x1="240" y1="412" x2="1422" y2= "2437" />
   <line class="fil0 str0" x1="578" y1="412" x2="1591" y2= "2147" />
   <line class="fil0 str0" x1="916" y1="412" x2="1760" y2= "1859" />
   <line class="fil0 str0" x1="1253" y1="412" x2="1929" y2= "1569" />
   <line class="fil0 str0" x1="1591" y1="412" x2="2098" y2= "1280" />
   <line class="fil0 str0" x1="1929" y1="412" x2="2267" y2= "990" />
   <line class="fil0 str0" x1="1960" y1="358" x2="916" y2= "2147" />
   <line class="fil0 str0" x1="2298" y1="359" x2="1085" y2= "2437" />
   <line class="fil0 str0" x1="1623" y1="358" x2="747" y2= "1858" />
   <line class="fil0 str0" x1="1285" y1="358" x2="578" y2= "1569" />
   <line class="fil0 str0" x1="947" y1="358" x2="409" y2= "1280" />
   <line class="fil0 str0" x1="610" y1="358" x2="240" y2= "991" />
   <line class="fil0 str0" x1="2267" y1="412" x2="2435" y2= "701" />
   <line class="fil0 str0" x1="72" y1="701" x2="2435" y2= "701" />
   <line class="fil0 str0" x1="240" y1="991" x2="2267" y2= "990" />
   <line class="fil0 str0" x1="409" y1="1280" x2="2098" y2= "1280" />
   <line class="fil0 str0" x1="578" y1="1569" x2="1929" y2= "1569" />
   <line class="fil0 str0" x1="747" y1="1858" x2="1760" y2= "1859" />
   <line class="fil0 str0" x1="916" y1="2147" x2="1591" y2= "2147" />
   <line class="fil0 str0" x1="1085" y1="2437" x2="1422" y2= "2437" />
   <line class="fil0 str0" x1="72" y1="701" x2="271" y2= "359" />
   <path class="fil0 str0" d="M2304 476c-109,-182 -172,-321 -39,-391 42,-22 135,-11 168,13"/>
   <path class="fil0 str0" d="M1966 476c-108,-182 -171,-321 -39,-391 42,-22 135,-11 168,13"/>
   <path class="fil0 str0" d="M1629 476c-109,-182 -172,-321 -40,-391 42,-22 135,-11 168,13"/>
   <path class="fil0 str0" d="M1291 476c-109,-182 -172,-321 -39,-391 42,-22 135,-11 168,13"/>
   <path class="fil0 str0" d="M954 476c-109,-182 -172,-321 -39,-391 42,-22 135,-11 168,13"/>
   <path class="fil0 str0" d="M616 476c-109,-182 -172,-321 -39,-391 42,-22 135,-11 168,13"/>
   <path class="fil0 str0" d="M278 476c-109,-182 -172,-321 -39,-391 42,-22 135,-11 168,13"/>
   <path class="fil0 str0" d="M271 297c-4,12 -10,17 -19,19 -9,3 -22,-9 -18,-28 6,-24 26,-31 43,-25 17,6 24,28 15,53 -6,17 -16,38 -25,49"/>
   <path class="fil0 str0" d="M610 297c-4,12 -10,17 -19,19 -9,3 -22,-9 -18,-28 6,-24 26,-31 43,-25 17,6 24,28 15,53 -6,17 -16,38 -25,49"/>
   <path class="fil0 str0" d="M945 297c-4,12 -10,17 -19,19 -9,3 -22,-9 -18,-28 6,-24 26,-31 43,-25 17,6 24,28 15,53 -6,17 -16,38 -25,49"/>
   <path class="fil0 str0" d="M1284 297c-4,12 -10,17 -19,19 -9,3 -22,-9 -18,-28 6,-24 26,-31 43,-25 17,6 24,28 15,53 -6,17 -16,38 -25,49"/>
   <path class="fil0 str0" d="M1620 297c-4,12 -10,17 -19,19 -9,3 -22,-9 -18,-28 6,-24 26,-31 43,-25 17,6 24,28 15,53 -6,17 -16,38 -25,49"/>
   <path class="fil0 str0" d="M1961 297c-4,12 -10,17 -19,19 -9,3 -22,-9 -18,-28 6,-24 26,-31 43,-25 17,6 24,28 15,53 -6,17 -16,38 -25,49"/>
   <path class="fil0 str0" d="M2298 297c-4,12 -10,17 -19,19 -9,3 -22,-9 -18,-28 6,-24 26,-31 43,-25 17,6 24,28 15,53 -6,17 -16,38 -25,49"/>
  </g>
 </g>
</svg>
